<?xml version="1.0" encoding="UTF-8"?>
<svg id="Capa_2" data-name="Capa 2" xmlns="http://www.w3.org/2000/svg" viewBox="0 0 896.68 166.15">
  <defs>
    <style>
      .cls-1 {
        fill: #fefefe;
      }
    </style>
  </defs>
  <g id="Capa_1-2" data-name="Capa 1">
    <g>
      <g>
        <path class="cls-1" d="M105.77,1.25c69.32,14.72,55.09,108.15-15.72,104.68l59.66,60.21h-50.44C43.19,112.45.16,68.89,0,68.51h102.52c3.55-.6,5.65-2.1,6.77-3.1,6.29-5.69,5.89-18.06-.24-24.04-1.87-1.82-3.96-2.75-5.44-3.23H1.08V2.88c0-.12,1.51-1.63,1.63-1.63h103.06Z"/>
        <polygon class="cls-1" points="74.85 166.15 0 166.15 0 92.38 74.85 166.15"/>
      </g>
      <g>
        <path class="cls-1" d="M207.76,166.08h-42.09L219.35,0h52.2l53.61,166.08h-42.01l-37.11-123.75h-1.24l-37.03,123.75Z"/>
        <path class="cls-1" d="M342.12,166.08V0h39.06v69.82h2.18L435.4,0h45.98l-56.17,74.12,57.18,91.96h-46.68l-39.21-64.87-15.33,20.11v44.76h-39.06Z"/>
        <path class="cls-1" d="M535.3,0v166.08h-39.06V0h39.06Z"/>
        <path class="cls-1" d="M655.19,0h38.98v105.75c0,12.28-2.83,22.94-8.48,31.96-5.65,9.03-13.55,16.02-23.69,20.99-10.14,4.97-21.93,7.45-35.36,7.45s-25.38-2.48-35.52-7.45c-10.14-4.97-18.02-11.96-23.65-20.99-5.63-9.02-8.44-19.68-8.44-31.96V0h39.06v102.3c0,5.56,1.21,10.52,3.62,14.9,2.41,4.38,5.77,7.81,10.08,10.29,4.3,2.48,9.26,3.73,14.86,3.73s10.62-1.24,14.9-3.73c4.28-2.48,7.62-5.91,10.04-10.29,2.41-4.38,3.62-9.35,3.62-14.9V0Z"/>
        <path class="cls-1" d="M717.9,0h48.47l39.99,101.77h1.87L848.29,0h48.39v166.08h-38.04v-101.29h-1.24l-38.04,100.23h-24.04l-38.04-100.8h-1.24v101.85h-38.12V0Z"/>
      </g>
    </g>
  </g>
</svg>